<?xml version="1.0" encoding="UTF-8"?>
<!DOCTYPE svg PUBLIC "-//W3C//DTD SVG 1.1//EN" "http://www.w3.org/Graphics/SVG/1.1/DTD/svg11.dtd">
<!-- Creator: CorelDRAW -->
<svg xmlns="http://www.w3.org/2000/svg" xml:space="preserve" width="6.82666in" height="6.82666in" style="shape-rendering:geometricPrecision; text-rendering:geometricPrecision; image-rendering:optimizeQuality; fill-rule:evenodd; clip-rule:evenodd"
viewBox="0 0 6.82666 6.82666"
 xmlns:xlink="http://www.w3.org/1999/xlink">
 <defs>
  <style type="text/css">
   <![CDATA[
    .fil1 {fill:none}
    .fil0 {fill:#424242}
    .fil2 {fill:#FFFFFE;fill-rule:nonzero}
   ]]>
  </style>
 </defs>
 <rect class="fil0" width="6.82666" height="6.82666"/>
 <g id="Layer_x0020_1">
  <metadata id="CorelCorpID_0Corel-Layer"/>
  <g id="_259921712">
   <rect id="_259922768" class="fil1" width="6.82666" height="6.82666"/>
   <rect id="_259922240" class="fil1" x="0.853331" y="0.853331" width="5.12" height="5.12"/>
  </g>
  <g id="_259921856">
   <path id="_259921640" class="fil2" d="M3.41333 0.959996c0.677457,0 1.29079,0.274602 1.73476,0.718575 0.443972,0.443969 0.718575,1.0573 0.718575,1.73476 0,0.677457 -0.274602,1.29079 -0.718575,1.73476 -0.443969,0.443972 -1.0573,0.718575 -1.73476,0.718575 -0.677457,0 -1.29079,-0.274602 -1.73476,-0.718575 -0.443972,-0.443969 -0.718575,-1.0573 -0.718575,-1.73476 0,-0.677457 0.274602,-1.29079 0.718575,-1.73476 0.443969,-0.443972 1.0573,-0.718575 1.73476,-0.718575zm1.58393 0.869409c-0.40535,-0.405354 -0.965354,-0.656071 -1.58393,-0.656071 -0.618571,0 -1.17857,0.250717 -1.58393,0.656071 -0.405354,0.40535 -0.656071,0.965354 -0.656071,1.58393 0,0.618571 0.250717,1.17857 0.656071,1.58393 0.40535,0.405354 0.965354,0.656071 1.58393,0.656071 0.618571,0 1.17857,-0.250717 1.58393,-0.656071 0.405354,-0.40535 0.656071,-0.965354 0.656071,-1.58393 0,-0.618571 -0.250717,-1.17857 -0.656071,-1.58393z"/>
   <path id="_259921616" class="fil2" d="M3.41333 0.959996c0.395382,0 0.747984,0.284004 0.998433,0.743157 0.239874,0.439764 0.38824,1.04458 0.38824,1.71018 0,0.665598 -0.148366,1.27041 -0.38824,1.71018 -0.250449,0.459154 -0.603051,0.743157 -0.998433,0.743157 -0.395382,0 -0.747984,-0.284004 -0.998433,-0.743157 -0.239874,-0.439764 -0.38824,-1.04458 -0.38824,-1.71018 0,-0.665598 0.148366,-1.27041 0.38824,-1.71018 0.250449,-0.459154 0.603051,-0.743157 0.998433,-0.743157zm0.811764 0.844827c-0.212815,-0.390161 -0.50022,-0.631488 -0.811764,-0.631488 -0.311543,0 -0.598949,0.241327 -0.811764,0.631488 -0.223398,0.409555 -0.361571,0.978091 -0.361571,1.60851 0,0.630417 0.138173,1.19895 0.361571,1.60851 0.212815,0.390161 0.50022,0.631488 0.811764,0.631488 0.311543,0 0.598949,-0.241327 0.811764,-0.631488 0.223398,-0.409555 0.361571,-0.978091 0.361571,-1.60851 0,-0.630417 -0.138173,-1.19895 -0.361571,-1.60851z"/>
   <polygon id="_259922096" class="fil2" points="1.16648,2.54036 5.65333,2.54036 5.65333,2.7537 1.16648,2.7537 "/>
   <polygon id="_259921784" class="fil2" points="1.16648,4.07297 5.65333,4.07297 5.65333,4.28631 1.16648,4.28631 "/>
  </g>
 </g>
</svg>
